# xmcd
#
# Track frame offsets:
# 150
# 14257
# 25384
# 38873
# 49266
# 63981
# 77585
# 91886
# 109692
# 124617
# 140423
# 151327
# 164894
# 182291
# 197157
# 213947
#
# Disc length: 3065 seconds
#
#
# Revision: 0
# Processed by: cddbd v1.4PL0 Copyright (c) Steve Scherf et al.
# Submitted via: FreeRIP 2.00 
#
DISCID=d20bf710
DTITLE=Ricky Skaggs - 16 Biggest Hits
DYEAR=2000
DGENRE=Bluegrass
TTITLE0=Don't Get Above Your Raising
TTITLE1=You May See Me Walkin'
TTITLE2=Crying My Heart Out Over You
TTITLE3=I Don't Care
TTITLE4=Heart Broke
TTITLE5=I Wouldn't Change You If I Could
TTITLE6=Highway 40 Blues
TTITLE7=You've Got A Lover
TTITLE8=Don't Cheat In Our Hometown
TTITLE9=Honey (Open That Door)
TTITLE10=Uncle Pen
TTITLE11=Something In My Heart
TTITLE12=Country Boy
TTITLE13=Wheel Hoss
TTITLE14=Cajun Moon (Live)
TTITLE15=Lovin' Only Me
EXTD=Sony
EXTT0=
EXTT1=
EXTT2=
EXTT3=
EXTT4=
EXTT5=
EXTT6=
EXTT7=
EXTT8=
EXTT9=
EXTT10=
EXTT11=
EXTT12=
EXTT13=
EXTT14=
EXTT15=
PLAYORDER=
